<svg xmlns="http://www.w3.org/2000/svg" viewBox="0 0 512 512" fill="none">
  <rect width="512" height="512" rx="112" fill="#070b14"/>
  <rect x="10" y="10" width="492" height="492" rx="102" stroke="#243044" stroke-width="12"/>
  <path fill="#2dd4bf" d="M88 120h160v48H144v64h88v48H144v112H88V120Z"/>
  <path fill="#2dd4bf" fill-rule="evenodd" d="M368 120c75.11 0 136 60.89 136 136s-60.89 136-136 136-136-60.89-136-136 60.89-136 136-136Zm0 48c-48.6 0-88 39.4-88 88s39.4 88 88 88 88-39.4 88-88-39.4-88-88-88Z"/>
</svg>
