<svg xmlns="http://www.w3.org/2000/svg" width="1200" height="630" viewBox="0 0 1200 630">
  <defs>
    <linearGradient id="g" x1="0" y1="0" x2="1" y2="1">
      <stop offset="0%" stop-color="#070b14"/>
      <stop offset="100%" stop-color="#101827"/>
    </linearGradient>
  </defs>
  <rect width="1200" height="630" fill="url(#g)"/>
  <circle cx="980" cy="120" r="220" fill="#2dd4bf" opacity="0.12"/>
  <rect x="80" y="175" width="120" height="120" rx="28" fill="#101827" stroke="#243044" stroke-width="3"/>
  <path fill="#2dd4bf" d="M102 200h38v11H115v15h21v11H115v26h-13V200Z"/>
  <path fill="#2dd4bf" fill-rule="evenodd" d="M168 200c17.67 0 32 14.33 32 32s-14.33 32-32 32-32-14.33-32-32 14.33-32 32-32Zm0 11c-11.6 0-21 9.4-21 21s9.4 21 21 21 21-9.4 21-21-9.4-21-21-21Z"/>
  <text x="230" y="255" font-family="ui-sans-serif,system-ui,sans-serif" font-size="64" font-weight="700" fill="#e8edf5">Franco Osorio</text>
  <text x="80" y="370" font-family="ui-monospace,monospace" font-size="28" fill="#2dd4bf">Full Stack Developer · Mobile Engineer</text>
  <text x="80" y="430" font-family="ui-sans-serif,system-ui,sans-serif" font-size="24" fill="#9aa6b8">React Native · Expo · NestJS · TypeScript · Cloud</text>
</svg>
