<svg xmlns="http://www.w3.org/2000/svg" width="1200" height="630" viewBox="0 0 1200 630">
  <defs>
    <linearGradient id="g" x1="0" y1="0" x2="1" y2="1">
      <stop offset="0%" stop-color="#070b14"/>
      <stop offset="100%" stop-color="#101827"/>
    </linearGradient>
  </defs>
  <rect width="1200" height="630" fill="url(#g)"/>
  <circle cx="980" cy="120" r="220" fill="#2dd4bf" opacity="0.12"/>
  <rect x="80" y="175" width="112" height="112" rx="28" fill="#101827" stroke="#243044" stroke-width="3"/>
  <path d="M104 255V205h32c10.3 0 17 5.8 17 14.7 0 6-3 10.5-7.9 12.8L160 255h-14.7l-7.2-19.6H118.4V255H104Zm14.4-32.2h15.1c4.2 0 6.8-2.3 6.8-5.8s-2.6-5.6-6.8-5.6h-15.1v11.4Z" fill="#2dd4bf"/>
  <circle cx="164" cy="242" r="17.5" stroke="#2dd4bf" stroke-width="8" fill="none"/>
  <text x="220" y="250" font-family="ui-sans-serif,system-ui,sans-serif" font-size="64" font-weight="700" fill="#e8edf5">Franco Osorio</text>
  <text x="80" y="360" font-family="ui-monospace,monospace" font-size="28" fill="#2dd4bf">Full Stack Developer · Mobile Engineer</text>
  <text x="80" y="420" font-family="ui-sans-serif,system-ui,sans-serif" font-size="24" fill="#9aa6b8">React Native · Expo · NestJS · TypeScript · Cloud</text>
</svg>
